<svg width="1440" height="100" viewBox="0 0 1440 100" fill="none" xmlns="http://www.w3.org/2000/svg">
<g filter="url(#filter0_b_2_3113)">
<rect width="1440" height="100" fill="#0A1939"/>
</g>
<path d="M159.423 33.1051C157.991 33.4333 157.611 35.3649 159 36.0016C159.901 36.4144 161.253 36.2474 162.241 36.4281C164.167 36.7805 165.943 37.4077 167.594 38.3828C175.356 42.9681 176.599 52.6178 170.662 58.8967C166.349 63.4575 158.813 64.7254 152.943 62.0597C151.298 61.3128 149.835 60.2347 148.58 59.0247C147.771 58.2448 146.989 57.1956 145.617 57.699C142.776 58.7419 146.675 61.893 147.73 62.6853C151.279 65.3483 156.183 66.9829 160.832 66.5627C172.197 65.5354 179.851 55.9635 177.401 45.8464C175.993 40.0322 170.702 35.0998 164.354 33.6453C162.924 33.3177 160.89 32.769 159.423 33.1051ZM128.993 33.3717C127.459 33.876 127.819 35.9792 129.275 36.3251C130.988 36.7319 133.28 36.3784 135.051 36.3784H147.167C148.71 36.3784 151.932 36.9309 153.213 36.0585C154.276 35.3347 153.886 33.4906 152.52 33.3184C150.805 33.102 148.9 33.3077 147.167 33.3077H131.247C130.568 33.3077 129.639 33.1595 128.993 33.3717ZM157.451 40.0887C157.451 40.8794 157.786 42.4578 157.349 43.1487C156.975 43.7393 155.765 44.1006 155.196 44.5774C153.67 45.8579 152.801 47.9387 152.801 49.8125C152.801 51.7185 153.672 53.7382 155.196 55.0546C155.77 55.5502 156.943 55.9078 157.349 56.4975C157.793 57.1442 157.451 58.7786 157.451 59.5362H159L159.141 56.8494L161.395 57.1053V59.5362H162.945V56.8493C164.607 56.7732 166.04 55.8295 167.171 54.8023V54.6743C166.756 54.2975 166.088 53.4018 165.481 53.3237C164.894 53.2485 164.05 54.1646 163.508 54.3864C162.307 54.8789 160.816 54.9275 159.564 54.5855C154.516 53.206 154.517 46.4291 159.564 45.0396C160.844 44.6871 162.282 44.7676 163.508 45.26C164.048 45.4766 164.898 46.3761 165.481 46.3014C166.088 46.2233 166.756 45.3276 167.171 44.9508V44.8228C166.017 43.7788 164.6 42.9336 162.945 42.7758V40.0889H161.395C161.395 40.6548 161.696 42.2172 161.098 42.5554C160.646 42.8106 159.68 42.6832 159.141 42.7758L159 40.0889L157.451 40.0887ZM192.811 40.7784C190.834 41.0735 188.961 41.4399 187.317 42.5732C182.764 45.7126 182.131 52.5234 186.343 56.1819C189.678 59.0785 195.142 59.5494 199.151 57.5857C199.702 57.3156 201.526 56.4054 201.287 55.6985C201.157 55.3116 200.589 55.0469 200.278 54.7922C199.988 54.5549 199.584 53.9926 199.151 53.9926C198.652 53.9926 198.014 54.7588 197.601 55.002C196.641 55.5671 195.491 55.8416 194.361 55.9438C189.339 56.3978 185.984 51.5578 187.552 47.5101C188.771 44.3629 192.819 42.9029 196.192 43.8885C196.944 44.1083 198.887 45.6975 199.433 45.4168C199.843 45.2056 201.311 44.1164 201.311 43.6718C201.311 42.9995 199.848 42.2748 199.292 41.9872C197.441 41.03 194.944 40.4601 192.811 40.7784ZM212.393 40.7788C210.27 41.0957 208.332 41.5682 206.617 42.8259C202.058 46.1713 202.026 52.9408 206.335 56.4557C208.797 58.4638 212.307 59.0482 215.493 58.613C216.935 58.4159 218.352 57.9497 219.578 57.2304C228.306 52.1116 222.556 39.2616 212.393 40.7788ZM380.6 40.7793C378.563 41.0834 376.62 41.4869 374.965 42.6984C370.107 46.2518 370.107 53.247 374.965 56.8005C377.377 58.5653 380.716 59.0208 383.7 58.613C385.082 58.4242 386.472 57.9667 387.644 57.2766C396.315 52.173 390.893 39.2432 380.6 40.7793ZM227.744 40.9848V58.5134H231.266V40.9848H227.744ZM236.478 40.9848V58.5134H240V46.7423L247.553 55.0589L250.621 58.421L253.666 58.5133V40.9848H250.144V52.7559L247.741 50.197L242.45 44.3115L239.437 41.0774L236.478 40.9848ZM258.878 40.985V58.5136H262.4V40.985H258.878ZM267.613 40.985V58.5136H271.135V46.7425L278.546 54.9306L281.732 58.4207L284.659 58.5131V40.9845H281.137V52.7556L273.679 44.439L270.567 41.0769L267.613 40.985ZM287.477 40.9845V43.6713H293.816V58.5131H297.338V47.6381C297.338 46.8448 296.896 44.415 297.526 43.8424C297.875 43.5255 298.719 43.6719 299.17 43.6719H303.819V40.985L287.477 40.9845ZM306.495 40.985V58.5136H321.005V55.8268H312.975L310.204 55.6562L310.017 54.4194V50.9649H319.315V48.2781H310.017V45.0795L310.204 43.8427L312.975 43.6722H320.583V40.9854L306.495 40.985ZM324.951 40.9854V58.514H328.473V46.7429L331.204 49.6856L336.248 55.3152L339.179 58.4214L342.138 58.5138V40.9852H338.616V52.7563L336.212 50.1974L330.594 43.9282L327.909 41.0778L324.951 40.9854ZM344.815 40.9854V43.6722H351.154V58.514H354.817V43.6722H361.157V40.9854H344.815ZM363.833 40.9854V58.514H367.496V40.9854H363.833ZM395.813 40.9854V58.514H399.335V46.7429L402.207 49.8136L407.251 55.4431L410.042 58.4214L413 58.5138V40.9852H409.478V52.7563L401.597 44.0558L398.857 41.0776L395.813 40.9854ZM133.212 41.8168C131.643 42.2963 132.028 44.4345 133.494 44.7702C134.646 45.0342 136.111 44.8235 137.297 44.8235H145.046C146.254 44.8235 148.195 45.1568 149.268 44.5782C150.438 43.9475 150.232 42.0471 148.85 41.7848C147.758 41.5779 146.442 41.7528 145.328 41.7528H138.002C136.593 41.7528 134.548 41.4087 133.212 41.8168ZM212.808 43.5724C219.36 42.7461 223.066 50.9697 217.88 54.622C216.79 55.3895 215.444 55.8205 214.076 55.9442C208.196 56.4756 204.538 50.0293 208.077 45.8474C209.231 44.4837 210.98 43.8031 212.808 43.5724ZM381.015 43.5728C387.321 42.7775 390.835 50.1623 386.639 54.1599C385.485 55.2589 383.77 55.7969 382.142 55.9442C376.522 56.4521 373.057 50.5535 375.857 46.3589C376.988 44.6636 378.931 43.8356 381.015 43.5728ZM137.857 49.7459C136.497 50.1213 136.309 51.9998 137.575 52.5927C138.154 52.8638 138.917 52.7562 139.547 52.7562C141.158 52.7562 143.686 53.1914 145.183 52.646C146.53 52.1548 146.624 50.2235 145.183 49.7495C144.574 49.5494 143.71 49.6855 143.069 49.6855C141.508 49.6855 139.351 49.3334 137.857 49.7459Z" fill="#FBC315"/>
<path d="M613.555 50.0792C613.555 49.0592 613.79 48.1442 614.26 47.3342C614.74 46.5242 615.385 45.8942 616.195 45.4442C617.015 44.9842 617.91 44.7542 618.88 44.7542C619.99 44.7542 620.975 45.0292 621.835 45.5792C622.705 46.1192 623.335 46.8892 623.725 47.8892H621.67C621.4 47.3392 621.025 46.9292 620.545 46.6592C620.065 46.3892 619.51 46.2542 618.88 46.2542C618.19 46.2542 617.575 46.4092 617.035 46.7192C616.495 47.0292 616.07 47.4742 615.76 48.0542C615.46 48.6342 615.31 49.3092 615.31 50.0792C615.31 50.8492 615.46 51.5242 615.76 52.1042C616.07 52.6842 616.495 53.1342 617.035 53.4542C617.575 53.7642 618.19 53.9192 618.88 53.9192C619.51 53.9192 620.065 53.7842 620.545 53.5142C621.025 53.2442 621.4 52.8342 621.67 52.2842H623.725C623.335 53.2842 622.705 54.0542 621.835 54.5942C620.975 55.1342 619.99 55.4042 618.88 55.4042C617.9 55.4042 617.005 55.1792 616.195 54.7292C615.385 54.2692 614.74 53.6342 614.26 52.8242C613.79 52.0142 613.555 51.0992 613.555 50.0792ZM627.437 48.2492C627.687 47.8292 628.017 47.5042 628.427 47.2742C628.847 47.0342 629.342 46.9142 629.912 46.9142V48.6842H629.477C628.807 48.6842 628.297 48.8542 627.947 49.1942C627.607 49.5342 627.437 50.1242 627.437 50.9642V55.3142H625.727V47.0492H627.437V48.2492ZM638.923 47.0492L633.853 59.1992H632.083L633.763 55.1792L630.508 47.0492H632.413L634.738 53.3492L637.153 47.0492H638.923ZM641.924 48.2642C642.214 47.8842 642.609 47.5642 643.109 47.3042C643.609 47.0442 644.174 46.9142 644.804 46.9142C645.524 46.9142 646.179 47.0942 646.769 47.4542C647.369 47.8042 647.839 48.2992 648.179 48.9392C648.519 49.5792 648.689 50.3142 648.689 51.1442C648.689 51.9742 648.519 52.7192 648.179 53.3792C647.839 54.0292 647.369 54.5392 646.769 54.9092C646.179 55.2692 645.524 55.4492 644.804 55.4492C644.174 55.4492 643.614 55.3242 643.124 55.0742C642.634 54.8142 642.234 54.4942 641.924 54.1142V59.2442H640.214V47.0492H641.924V48.2642ZM646.949 51.1442C646.949 50.5742 646.829 50.0842 646.589 49.6742C646.359 49.2542 646.049 48.9392 645.659 48.7292C645.279 48.5092 644.869 48.3992 644.429 48.3992C643.999 48.3992 643.589 48.5092 643.199 48.7292C642.819 48.9492 642.509 49.2692 642.269 49.6892C642.039 50.1092 641.924 50.6042 641.924 51.1742C641.924 51.7442 642.039 52.2442 642.269 52.6742C642.509 53.0942 642.819 53.4142 643.199 53.6342C643.589 53.8542 643.999 53.9642 644.429 53.9642C644.869 53.9642 645.279 53.8542 645.659 53.6342C646.049 53.4042 646.359 53.0742 646.589 52.6442C646.829 52.2142 646.949 51.7142 646.949 51.1442ZM652.375 48.4442V53.0192C652.375 53.3292 652.445 53.5542 652.585 53.6942C652.735 53.8242 652.985 53.8892 653.335 53.8892H654.385V55.3142H653.035C652.265 55.3142 651.675 55.1342 651.265 54.7742C650.855 54.4142 650.65 53.8292 650.65 53.0192V48.4442H649.675V47.0492H650.65V44.9942H652.375V47.0492H654.385V48.4442H652.375ZM659.546 55.4492C658.766 55.4492 658.061 55.2742 657.431 54.9242C656.801 54.5642 656.306 54.0642 655.946 53.4242C655.586 52.7742 655.406 52.0242 655.406 51.1742C655.406 50.3342 655.591 49.5892 655.961 48.9392C656.331 48.2892 656.836 47.7892 657.476 47.4392C658.116 47.0892 658.831 46.9142 659.621 46.9142C660.411 46.9142 661.126 47.0892 661.766 47.4392C662.406 47.7892 662.911 48.2892 663.281 48.9392C663.651 49.5892 663.836 50.3342 663.836 51.1742C663.836 52.0142 663.646 52.7592 663.266 53.4092C662.886 54.0592 662.366 54.5642 661.706 54.9242C661.056 55.2742 660.336 55.4492 659.546 55.4492ZM659.546 53.9642C659.986 53.9642 660.396 53.8592 660.776 53.6492C661.166 53.4392 661.481 53.1242 661.721 52.7042C661.961 52.2842 662.081 51.7742 662.081 51.1742C662.081 50.5742 661.966 50.0692 661.736 49.6592C661.506 49.2392 661.201 48.9242 660.821 48.7142C660.441 48.5042 660.031 48.3992 659.591 48.3992C659.151 48.3992 658.741 48.5042 658.361 48.7142C657.991 48.9242 657.696 49.2392 657.476 49.6592C657.256 50.0692 657.146 50.5742 657.146 51.1742C657.146 52.0642 657.371 52.7542 657.821 53.2442C658.281 53.7242 658.856 53.9642 659.546 53.9642ZM664.956 51.1742C664.956 50.3242 665.126 49.5792 665.466 48.9392C665.816 48.2892 666.296 47.7892 666.906 47.4392C667.516 47.0892 668.216 46.9142 669.006 46.9142C670.006 46.9142 670.831 47.1542 671.481 47.6342C672.141 48.1042 672.586 48.7792 672.816 49.6592H670.971C670.821 49.2492 670.581 48.9292 670.251 48.6992C669.921 48.4692 669.506 48.3542 669.006 48.3542C668.306 48.3542 667.746 48.6042 667.326 49.1042C666.916 49.5942 666.711 50.2842 666.711 51.1742C666.711 52.0642 666.916 52.7592 667.326 53.2592C667.746 53.7592 668.306 54.0092 669.006 54.0092C669.996 54.0092 670.651 53.5742 670.971 52.7042H672.816C672.576 53.5442 672.126 54.2142 671.466 54.7142C670.806 55.2042 669.986 55.4492 669.006 55.4492C668.216 55.4492 667.516 55.2742 666.906 54.9242C666.296 54.5642 665.816 54.0642 665.466 53.4242C665.126 52.7742 664.956 52.0242 664.956 51.1742ZM682.006 47.0492V55.3142H680.296V54.3392C680.026 54.6792 679.671 54.9492 679.231 55.1492C678.801 55.3392 678.341 55.4342 677.851 55.4342C677.201 55.4342 676.616 55.2992 676.096 55.0292C675.586 54.7592 675.181 54.3592 674.881 53.8292C674.591 53.2992 674.446 52.6592 674.446 51.9092V47.0492H676.141V51.6542C676.141 52.3942 676.326 52.9642 676.696 53.3642C677.066 53.7542 677.571 53.9492 678.211 53.9492C678.851 53.9492 679.356 53.7542 679.726 53.3642C680.106 52.9642 680.296 52.3942 680.296 51.6542V47.0492H682.006ZM685.972 48.2492C686.222 47.8292 686.552 47.5042 686.962 47.2742C687.382 47.0342 687.877 46.9142 688.447 46.9142V48.6842H688.012C687.342 48.6842 686.832 48.8542 686.482 49.1942C686.142 49.5342 685.972 50.1242 685.972 50.9642V55.3142H684.262V47.0492H685.972V48.2492ZM691.729 48.2492C691.979 47.8292 692.309 47.5042 692.719 47.2742C693.139 47.0342 693.634 46.9142 694.204 46.9142V48.6842H693.769C693.099 48.6842 692.589 48.8542 692.239 49.1942C691.899 49.5342 691.729 50.1242 691.729 50.9642V55.3142H690.019V47.0492H691.729V48.2492ZM703.35 50.9792C703.35 51.2892 703.33 51.5692 703.29 51.8192H696.975C697.025 52.4792 697.27 53.0092 697.71 53.4092C698.15 53.8092 698.69 54.0092 699.33 54.0092C700.25 54.0092 700.9 53.6242 701.28 52.8542H703.125C702.875 53.6142 702.42 54.2392 701.76 54.7292C701.11 55.2092 700.3 55.4492 699.33 55.4492C698.54 55.4492 697.83 55.2742 697.2 54.9242C696.58 54.5642 696.09 54.0642 695.73 53.4242C695.38 52.7742 695.205 52.0242 695.205 51.1742C695.205 50.3242 695.375 49.5792 695.715 48.9392C696.065 48.2892 696.55 47.7892 697.17 47.4392C697.8 47.0892 698.52 46.9142 699.33 46.9142C700.11 46.9142 700.805 47.0842 701.415 47.4242C702.025 47.7642 702.5 48.2442 702.84 48.8642C703.18 49.4742 703.35 50.1792 703.35 50.9792ZM701.565 50.4392C701.555 49.8092 701.33 49.3042 700.89 48.9242C700.45 48.5442 699.905 48.3542 699.255 48.3542C698.665 48.3542 698.16 48.5442 697.74 48.9242C697.32 49.2942 697.07 49.7992 696.99 50.4392H701.565ZM709.203 46.9142C709.853 46.9142 710.433 47.0492 710.943 47.3192C711.463 47.5892 711.868 47.9892 712.158 48.5192C712.448 49.0492 712.593 49.6892 712.593 50.4392V55.3142H710.898V50.6942C710.898 49.9542 710.713 49.3892 710.343 48.9992C709.973 48.5992 709.468 48.3992 708.828 48.3992C708.188 48.3992 707.678 48.5992 707.298 48.9992C706.928 49.3892 706.743 49.9542 706.743 50.6942V55.3142H705.033V47.0492H706.743V47.9942C707.023 47.6542 707.378 47.3892 707.808 47.1992C708.248 47.0092 708.713 46.9142 709.203 46.9142ZM714.204 51.1742C714.204 50.3242 714.374 49.5792 714.714 48.9392C715.064 48.2892 715.544 47.7892 716.154 47.4392C716.764 47.0892 717.464 46.9142 718.254 46.9142C719.254 46.9142 720.079 47.1542 720.729 47.6342C721.389 48.1042 721.834 48.7792 722.064 49.6592H720.219C720.069 49.2492 719.829 48.9292 719.499 48.6992C719.169 48.4692 718.754 48.3542 718.254 48.3542C717.554 48.3542 716.994 48.6042 716.574 49.1042C716.164 49.5942 715.959 50.2842 715.959 51.1742C715.959 52.0642 716.164 52.7592 716.574 53.2592C716.994 53.7592 717.554 54.0092 718.254 54.0092C719.244 54.0092 719.899 53.5742 720.219 52.7042H722.064C721.824 53.5442 721.374 54.2142 720.714 54.7142C720.054 55.2042 719.234 55.4492 718.254 55.4492C717.464 55.4492 716.764 55.2742 716.154 54.9242C715.544 54.5642 715.064 54.0642 714.714 53.4242C714.374 52.7742 714.204 52.0242 714.204 51.1742ZM724.639 45.9542C724.329 45.9542 724.069 45.8492 723.859 45.6392C723.649 45.4292 723.544 45.1692 723.544 44.8592C723.544 44.5492 723.649 44.2892 723.859 44.0792C724.069 43.8692 724.329 43.7642 724.639 43.7642C724.939 43.7642 725.194 43.8692 725.404 44.0792C725.614 44.2892 725.719 44.5492 725.719 44.8592C725.719 45.1692 725.614 45.4292 725.404 45.6392C725.194 45.8492 724.939 45.9542 724.639 45.9542ZM725.479 47.0492V55.3142H723.769V47.0492H725.479ZM735.299 50.9792C735.299 51.2892 735.279 51.5692 735.239 51.8192H728.924C728.974 52.4792 729.219 53.0092 729.659 53.4092C730.099 53.8092 730.639 54.0092 731.279 54.0092C732.199 54.0092 732.849 53.6242 733.229 52.8542H735.074C734.824 53.6142 734.369 54.2392 733.709 54.7292C733.059 55.2092 732.249 55.4492 731.279 55.4492C730.489 55.4492 729.779 55.2742 729.149 54.9242C728.529 54.5642 728.039 54.0642 727.679 53.4242C727.329 52.7742 727.154 52.0242 727.154 51.1742C727.154 50.3242 727.324 49.5792 727.664 48.9392C728.014 48.2892 728.499 47.7892 729.119 47.4392C729.749 47.0892 730.469 46.9142 731.279 46.9142C732.059 46.9142 732.754 47.0842 733.364 47.4242C733.974 47.7642 734.449 48.2442 734.789 48.8642C735.129 49.4742 735.299 50.1792 735.299 50.9792ZM733.514 50.4392C733.504 49.8092 733.279 49.3042 732.839 48.9242C732.399 48.5442 731.854 48.3542 731.204 48.3542C730.614 48.3542 730.109 48.5442 729.689 48.9242C729.269 49.2942 729.019 49.7992 728.939 50.4392H733.514ZM739.981 55.4492C739.331 55.4492 738.746 55.3342 738.226 55.1042C737.716 54.8642 737.311 54.5442 737.011 54.1442C736.711 53.7342 736.551 53.2792 736.531 52.7792H738.301C738.331 53.1292 738.496 53.4242 738.796 53.6642C739.106 53.8942 739.491 54.0092 739.951 54.0092C740.431 54.0092 740.801 53.9192 741.061 53.7392C741.331 53.5492 741.466 53.3092 741.466 53.0192C741.466 52.7092 741.316 52.4792 741.016 52.3292C740.726 52.1792 740.261 52.0142 739.621 51.8342C739.001 51.6642 738.496 51.4992 738.106 51.3392C737.716 51.1792 737.376 50.9342 737.086 50.6042C736.806 50.2742 736.666 49.8392 736.666 49.2992C736.666 48.8592 736.796 48.4592 737.056 48.0992C737.316 47.7292 737.686 47.4392 738.166 47.2292C738.656 47.0192 739.216 46.9142 739.846 46.9142C740.786 46.9142 741.541 47.1542 742.111 47.6342C742.691 48.1042 743.001 48.7492 743.041 49.5692H741.331C741.301 49.1992 741.151 48.9042 740.881 48.6842C740.611 48.4642 740.246 48.3542 739.786 48.3542C739.336 48.3542 738.991 48.4392 738.751 48.6092C738.511 48.7792 738.391 49.0042 738.391 49.2842C738.391 49.5042 738.471 49.6892 738.631 49.8392C738.791 49.9892 738.986 50.1092 739.216 50.1992C739.446 50.2792 739.786 50.3842 740.236 50.5142C740.836 50.6742 741.326 50.8392 741.706 51.0092C742.096 51.1692 742.431 51.4092 742.711 51.7292C742.991 52.0492 743.136 52.4742 743.146 53.0042C743.146 53.4742 743.016 53.8942 742.756 54.2642C742.496 54.6342 742.126 54.9242 741.646 55.1342C741.176 55.3442 740.621 55.4492 739.981 55.4492Z" fill="white"/>
<path d="M786.835 46.2692V49.3292H790.435V50.7242H786.835V53.9192H790.885V55.3142H785.125V44.8742H790.885V46.2692H786.835ZM796.531 51.1292L799.201 55.3142H797.266L795.481 52.5092L793.801 55.3142H792.016L794.686 51.2492L792.016 47.0492H793.951L795.736 49.8542L797.416 47.0492H799.201L796.531 51.1292ZM799.907 51.1742C799.907 50.3242 800.077 49.5792 800.417 48.9392C800.767 48.2892 801.247 47.7892 801.857 47.4392C802.467 47.0892 803.167 46.9142 803.957 46.9142C804.957 46.9142 805.782 47.1542 806.432 47.6342C807.092 48.1042 807.537 48.7792 807.767 49.6592H805.922C805.772 49.2492 805.532 48.9292 805.202 48.6992C804.872 48.4692 804.457 48.3542 803.957 48.3542C803.257 48.3542 802.697 48.6042 802.277 49.1042C801.867 49.5942 801.662 50.2842 801.662 51.1742C801.662 52.0642 801.867 52.7592 802.277 53.2592C802.697 53.7592 803.257 54.0092 803.957 54.0092C804.947 54.0092 805.602 53.5742 805.922 52.7042H807.767C807.527 53.5442 807.077 54.2142 806.417 54.7142C805.757 55.2042 804.937 55.4492 803.957 55.4492C803.167 55.4492 802.467 55.2742 801.857 54.9242C801.247 54.5642 800.767 54.0642 800.417 53.4242C800.077 52.7742 799.907 52.0242 799.907 51.1742ZM813.746 46.9142C814.376 46.9142 814.936 47.0492 815.426 47.3192C815.926 47.5892 816.316 47.9892 816.596 48.5192C816.886 49.0492 817.031 49.6892 817.031 50.4392V55.3142H815.336V50.6942C815.336 49.9542 815.151 49.3892 814.781 48.9992C814.411 48.5992 813.906 48.3992 813.266 48.3992C812.626 48.3992 812.116 48.5992 811.736 48.9992C811.366 49.3892 811.181 49.9542 811.181 50.6942V55.3142H809.471V44.2142H811.181V48.0092C811.471 47.6592 811.836 47.3892 812.276 47.1992C812.726 47.0092 813.216 46.9142 813.746 46.9142ZM818.642 51.1442C818.642 50.3142 818.812 49.5792 819.152 48.9392C819.502 48.2992 819.972 47.8042 820.562 47.4542C821.162 47.0942 821.822 46.9142 822.542 46.9142C823.192 46.9142 823.757 47.0442 824.237 47.3042C824.727 47.5542 825.117 47.8692 825.407 48.2492V47.0492H827.132V55.3142H825.407V54.0842C825.117 54.4742 824.722 54.7992 824.222 55.0592C823.722 55.3192 823.152 55.4492 822.512 55.4492C821.802 55.4492 821.152 55.2692 820.562 54.9092C819.972 54.5392 819.502 54.0292 819.152 53.3792C818.812 52.7192 818.642 51.9742 818.642 51.1442ZM825.407 51.1742C825.407 50.6042 825.287 50.1092 825.047 49.6892C824.817 49.2692 824.512 48.9492 824.132 48.7292C823.752 48.5092 823.342 48.3992 822.902 48.3992C822.462 48.3992 822.052 48.5092 821.672 48.7292C821.292 48.9392 820.982 49.2542 820.742 49.6742C820.512 50.0842 820.397 50.5742 820.397 51.1442C820.397 51.7142 820.512 52.2142 820.742 52.6442C820.982 53.0742 821.292 53.4042 821.672 53.6342C822.062 53.8542 822.472 53.9642 822.902 53.9642C823.342 53.9642 823.752 53.8542 824.132 53.6342C824.512 53.4142 824.817 53.0942 825.047 52.6742C825.287 52.2442 825.407 51.7442 825.407 51.1742ZM833.548 46.9142C834.198 46.9142 834.778 47.0492 835.288 47.3192C835.808 47.5892 836.213 47.9892 836.503 48.5192C836.793 49.0492 836.938 49.6892 836.938 50.4392V55.3142H835.243V50.6942C835.243 49.9542 835.058 49.3892 834.688 48.9992C834.318 48.5992 833.813 48.3992 833.173 48.3992C832.533 48.3992 832.023 48.5992 831.643 48.9992C831.273 49.3892 831.088 49.9542 831.088 50.6942V55.3142H829.378V47.0492H831.088V47.9942C831.368 47.6542 831.723 47.3892 832.153 47.1992C832.593 47.0092 833.058 46.9142 833.548 46.9142ZM842.449 46.9142C843.089 46.9142 843.654 47.0442 844.144 47.3042C844.644 47.5542 845.034 47.8692 845.314 48.2492V47.0492H847.039V55.4492C847.039 56.2092 846.879 56.8842 846.559 57.4742C846.239 58.0742 845.774 58.5442 845.164 58.8842C844.564 59.2242 843.844 59.3942 843.004 59.3942C841.884 59.3942 840.954 59.1292 840.214 58.5992C839.474 58.0792 839.054 57.3692 838.954 56.4692H840.649C840.779 56.8992 841.054 57.2442 841.474 57.5042C841.904 57.7742 842.414 57.9092 843.004 57.9092C843.694 57.9092 844.249 57.6992 844.669 57.2792C845.099 56.8592 845.314 56.2492 845.314 55.4492V54.0692C845.024 54.4592 844.629 54.7892 844.129 55.0592C843.639 55.3192 843.079 55.4492 842.449 55.4492C841.729 55.4492 841.069 55.2692 840.469 54.9092C839.879 54.5392 839.409 54.0292 839.059 53.3792C838.719 52.7192 838.549 51.9742 838.549 51.1442C838.549 50.3142 838.719 49.5792 839.059 48.9392C839.409 48.2992 839.879 47.8042 840.469 47.4542C841.069 47.0942 841.729 46.9142 842.449 46.9142ZM845.314 51.1742C845.314 50.6042 845.194 50.1092 844.954 49.6892C844.724 49.2692 844.419 48.9492 844.039 48.7292C843.659 48.5092 843.249 48.3992 842.809 48.3992C842.369 48.3992 841.959 48.5092 841.579 48.7292C841.199 48.9392 840.889 49.2542 840.649 49.6742C840.419 50.0842 840.304 50.5742 840.304 51.1442C840.304 51.7142 840.419 52.2142 840.649 52.6442C840.889 53.0742 841.199 53.4042 841.579 53.6342C841.969 53.8542 842.379 53.9642 842.809 53.9642C843.249 53.9642 843.659 53.8542 844.039 53.6342C844.419 53.4142 844.724 53.0942 844.954 52.6742C845.194 52.2442 845.314 51.7442 845.314 51.1742ZM856.86 50.9792C856.86 51.2892 856.84 51.5692 856.8 51.8192H850.485C850.535 52.4792 850.78 53.0092 851.22 53.4092C851.66 53.8092 852.2 54.0092 852.84 54.0092C853.76 54.0092 854.41 53.6242 854.79 52.8542H856.635C856.385 53.6142 855.93 54.2392 855.27 54.7292C854.62 55.2092 853.81 55.4492 852.84 55.4492C852.05 55.4492 851.34 55.2742 850.71 54.9242C850.09 54.5642 849.6 54.0642 849.24 53.4242C848.89 52.7742 848.715 52.0242 848.715 51.1742C848.715 50.3242 848.885 49.5792 849.225 48.9392C849.575 48.2892 850.06 47.7892 850.68 47.4392C851.31 47.0892 852.03 46.9142 852.84 46.9142C853.62 46.9142 854.315 47.0842 854.925 47.4242C855.535 47.7642 856.01 48.2442 856.35 48.8642C856.69 49.4742 856.86 50.1792 856.86 50.9792ZM855.075 50.4392C855.065 49.8092 854.84 49.3042 854.4 48.9242C853.96 48.5442 853.415 48.3542 852.765 48.3542C852.175 48.3542 851.67 48.5442 851.25 48.9242C850.83 49.2942 850.58 49.7992 850.5 50.4392H855.075ZM861.543 55.4492C860.893 55.4492 860.308 55.3342 859.788 55.1042C859.278 54.8642 858.873 54.5442 858.573 54.1442C858.273 53.7342 858.113 53.2792 858.093 52.7792H859.863C859.893 53.1292 860.058 53.4242 860.358 53.6642C860.668 53.8942 861.053 54.0092 861.513 54.0092C861.993 54.0092 862.363 53.9192 862.623 53.7392C862.893 53.5492 863.028 53.3092 863.028 53.0192C863.028 52.7092 862.878 52.4792 862.578 52.3292C862.288 52.1792 861.823 52.0142 861.183 51.8342C860.563 51.6642 860.058 51.4992 859.668 51.3392C859.278 51.1792 858.938 50.9342 858.648 50.6042C858.368 50.2742 858.228 49.8392 858.228 49.2992C858.228 48.8592 858.358 48.4592 858.618 48.0992C858.878 47.7292 859.248 47.4392 859.728 47.2292C860.218 47.0192 860.778 46.9142 861.408 46.9142C862.348 46.9142 863.103 47.1542 863.673 47.6342C864.253 48.1042 864.563 48.7492 864.603 49.5692H862.893C862.863 49.1992 862.713 48.9042 862.443 48.6842C862.173 48.4642 861.808 48.3542 861.348 48.3542C860.898 48.3542 860.553 48.4392 860.313 48.6092C860.073 48.7792 859.953 49.0042 859.953 49.2842C859.953 49.5042 860.033 49.6892 860.193 49.8392C860.353 49.9892 860.548 50.1092 860.778 50.1992C861.008 50.2792 861.348 50.3842 861.798 50.5142C862.398 50.6742 862.888 50.8392 863.268 51.0092C863.658 51.1692 863.993 51.4092 864.273 51.7292C864.553 52.0492 864.698 52.4742 864.708 53.0042C864.708 53.4742 864.578 53.8942 864.318 54.2642C864.058 54.6342 863.688 54.9242 863.208 55.1342C862.738 55.3442 862.183 55.4492 861.543 55.4492Z" fill="white"/>
<path d="M906.555 50.0792C906.555 49.0592 906.79 48.1442 907.26 47.3342C907.74 46.5242 908.385 45.8942 909.195 45.4442C910.015 44.9842 910.91 44.7542 911.88 44.7542C912.99 44.7542 913.975 45.0292 914.835 45.5792C915.705 46.1192 916.335 46.8892 916.725 47.8892H914.67C914.4 47.3392 914.025 46.9292 913.545 46.6592C913.065 46.3892 912.51 46.2542 911.88 46.2542C911.19 46.2542 910.575 46.4092 910.035 46.7192C909.495 47.0292 909.07 47.4742 908.76 48.0542C908.46 48.6342 908.31 49.3092 908.31 50.0792C908.31 50.8492 908.46 51.5242 908.76 52.1042C909.07 52.6842 909.495 53.1342 910.035 53.4542C910.575 53.7642 911.19 53.9192 911.88 53.9192C912.51 53.9192 913.065 53.7842 913.545 53.5142C914.025 53.2442 914.4 52.8342 914.67 52.2842H916.725C916.335 53.2842 915.705 54.0542 914.835 54.5942C913.975 55.1342 912.99 55.4042 911.88 55.4042C910.9 55.4042 910.005 55.1792 909.195 54.7292C908.385 54.2692 907.74 53.6342 907.26 52.8242C906.79 52.0142 906.555 51.0992 906.555 50.0792ZM922.312 55.4492C921.532 55.4492 920.827 55.2742 920.197 54.9242C919.567 54.5642 919.072 54.0642 918.712 53.4242C918.352 52.7742 918.172 52.0242 918.172 51.1742C918.172 50.3342 918.357 49.5892 918.727 48.9392C919.097 48.2892 919.602 47.7892 920.242 47.4392C920.882 47.0892 921.597 46.9142 922.387 46.9142C923.177 46.9142 923.892 47.0892 924.532 47.4392C925.172 47.7892 925.677 48.2892 926.047 48.9392C926.417 49.5892 926.602 50.3342 926.602 51.1742C926.602 52.0142 926.412 52.7592 926.032 53.4092C925.652 54.0592 925.132 54.5642 924.472 54.9242C923.822 55.2742 923.102 55.4492 922.312 55.4492ZM922.312 53.9642C922.752 53.9642 923.162 53.8592 923.542 53.6492C923.932 53.4392 924.247 53.1242 924.487 52.7042C924.727 52.2842 924.847 51.7742 924.847 51.1742C924.847 50.5742 924.732 50.0692 924.502 49.6592C924.272 49.2392 923.967 48.9242 923.587 48.7142C923.207 48.5042 922.797 48.3992 922.357 48.3992C921.917 48.3992 921.507 48.5042 921.127 48.7142C920.757 48.9242 920.462 49.2392 920.242 49.6592C920.022 50.0692 919.912 50.5742 919.912 51.1742C919.912 52.0642 920.137 52.7542 920.587 53.2442C921.047 53.7242 921.622 53.9642 922.312 53.9642ZM938.297 46.9142C938.947 46.9142 939.527 47.0492 940.037 47.3192C940.557 47.5892 940.962 47.9892 941.252 48.5192C941.552 49.0492 941.702 49.6892 941.702 50.4392V55.3142H940.007V50.6942C940.007 49.9542 939.822 49.3892 939.452 48.9992C939.082 48.5992 938.577 48.3992 937.937 48.3992C937.297 48.3992 936.787 48.5992 936.407 48.9992C936.037 49.3892 935.852 49.9542 935.852 50.6942V55.3142H934.157V50.6942C934.157 49.9542 933.972 49.3892 933.602 48.9992C933.232 48.5992 932.727 48.3992 932.087 48.3992C931.447 48.3992 930.937 48.5992 930.557 48.9992C930.187 49.3892 930.002 49.9542 930.002 50.6942V55.3142H928.292V47.0492H930.002V47.9942C930.282 47.6542 930.637 47.3892 931.067 47.1992C931.497 47.0092 931.957 46.9142 932.447 46.9142C933.107 46.9142 933.697 47.0542 934.217 47.3342C934.737 47.6142 935.137 48.0192 935.417 48.5492C935.667 48.0492 936.057 47.6542 936.587 47.3642C937.117 47.0642 937.687 46.9142 938.297 46.9142ZM953.883 46.9142C954.533 46.9142 955.113 47.0492 955.623 47.3192C956.143 47.5892 956.548 47.9892 956.838 48.5192C957.138 49.0492 957.288 49.6892 957.288 50.4392V55.3142H955.593V50.6942C955.593 49.9542 955.408 49.3892 955.038 48.9992C954.668 48.5992 954.163 48.3992 953.523 48.3992C952.883 48.3992 952.373 48.5992 951.993 48.9992C951.623 49.3892 951.438 49.9542 951.438 50.6942V55.3142H949.743V50.6942C949.743 49.9542 949.558 49.3892 949.188 48.9992C948.818 48.5992 948.313 48.3992 947.673 48.3992C947.033 48.3992 946.523 48.5992 946.143 48.9992C945.773 49.3892 945.588 49.9542 945.588 50.6942V55.3142H943.878V47.0492H945.588V47.9942C945.868 47.6542 946.223 47.3892 946.653 47.1992C947.083 47.0092 947.543 46.9142 948.033 46.9142C948.693 46.9142 949.283 47.0542 949.803 47.3342C950.323 47.6142 950.723 48.0192 951.003 48.5492C951.253 48.0492 951.643 47.6542 952.173 47.3642C952.703 47.0642 953.273 46.9142 953.883 46.9142ZM966.949 47.0492V55.3142H965.239V54.3392C964.969 54.6792 964.614 54.9492 964.174 55.1492C963.744 55.3392 963.284 55.4342 962.794 55.4342C962.144 55.4342 961.559 55.2992 961.039 55.0292C960.529 54.7592 960.124 54.3592 959.824 53.8292C959.534 53.2992 959.389 52.6592 959.389 51.9092V47.0492H961.084V51.6542C961.084 52.3942 961.269 52.9642 961.639 53.3642C962.009 53.7542 962.514 53.9492 963.154 53.9492C963.794 53.9492 964.299 53.7542 964.669 53.3642C965.049 52.9642 965.239 52.3942 965.239 51.6542V47.0492H966.949ZM973.375 46.9142C974.025 46.9142 974.605 47.0492 975.115 47.3192C975.635 47.5892 976.04 47.9892 976.33 48.5192C976.62 49.0492 976.765 49.6892 976.765 50.4392V55.3142H975.07V50.6942C975.07 49.9542 974.885 49.3892 974.515 48.9992C974.145 48.5992 973.64 48.3992 973 48.3992C972.36 48.3992 971.85 48.5992 971.47 48.9992C971.1 49.3892 970.915 49.9542 970.915 50.6942V55.3142H969.205V47.0492H970.915V47.9942C971.195 47.6542 971.55 47.3892 971.98 47.1992C972.42 47.0092 972.885 46.9142 973.375 46.9142ZM979.816 45.9542C979.506 45.9542 979.246 45.8492 979.036 45.6392C978.826 45.4292 978.721 45.1692 978.721 44.8592C978.721 44.5492 978.826 44.2892 979.036 44.0792C979.246 43.8692 979.506 43.7642 979.816 43.7642C980.116 43.7642 980.371 43.8692 980.581 44.0792C980.791 44.2892 980.896 44.5492 980.896 44.8592C980.896 45.1692 980.791 45.4292 980.581 45.6392C980.371 45.8492 980.116 45.9542 979.816 45.9542ZM980.656 47.0492V55.3142H978.946V47.0492H980.656ZM984.896 48.4442V53.0192C984.896 53.3292 984.966 53.5542 985.106 53.6942C985.256 53.8242 985.506 53.8892 985.856 53.8892H986.906V55.3142H985.556C984.786 55.3142 984.196 55.1342 983.786 54.7742C983.376 54.4142 983.171 53.8292 983.171 53.0192V48.4442H982.196V47.0492H983.171V44.9942H984.896V47.0492H986.906V48.4442H984.896ZM995.922 47.0492L990.852 59.1992H989.082L990.762 55.1792L987.507 47.0492H989.412L991.737 53.3492L994.152 47.0492H995.922Z" fill="white"/>
<path d="M1044.86 44.8892V46.2842H1042.09V55.3142H1040.38V46.2842H1037.59V44.8892H1044.86ZM1048.3 48.2492C1048.55 47.8292 1048.88 47.5042 1049.29 47.2742C1049.71 47.0342 1050.21 46.9142 1050.78 46.9142V48.6842H1050.34C1049.67 48.6842 1049.16 48.8542 1048.81 49.1942C1048.47 49.5342 1048.3 50.1242 1048.3 50.9642V55.3142H1046.59V47.0492H1048.3V48.2492ZM1051.78 51.1442C1051.78 50.3142 1051.95 49.5792 1052.29 48.9392C1052.64 48.2992 1053.11 47.8042 1053.7 47.4542C1054.3 47.0942 1054.96 46.9142 1055.68 46.9142C1056.33 46.9142 1056.89 47.0442 1057.37 47.3042C1057.86 47.5542 1058.25 47.8692 1058.54 48.2492V47.0492H1060.27V55.3142H1058.54V54.0842C1058.25 54.4742 1057.86 54.7992 1057.36 55.0592C1056.86 55.3192 1056.29 55.4492 1055.65 55.4492C1054.94 55.4492 1054.29 55.2692 1053.7 54.9092C1053.11 54.5392 1052.64 54.0292 1052.29 53.3792C1051.95 52.7192 1051.78 51.9742 1051.78 51.1442ZM1058.54 51.1742C1058.54 50.6042 1058.42 50.1092 1058.18 49.6892C1057.95 49.2692 1057.65 48.9492 1057.27 48.7292C1056.89 48.5092 1056.48 48.3992 1056.04 48.3992C1055.6 48.3992 1055.19 48.5092 1054.81 48.7292C1054.43 48.9392 1054.12 49.2542 1053.88 49.6742C1053.65 50.0842 1053.53 50.5742 1053.53 51.1442C1053.53 51.7142 1053.65 52.2142 1053.88 52.6442C1054.12 53.0742 1054.43 53.4042 1054.81 53.6342C1055.2 53.8542 1055.61 53.9642 1056.04 53.9642C1056.48 53.9642 1056.89 53.8542 1057.27 53.6342C1057.65 53.4142 1057.95 53.0942 1058.18 52.6742C1058.42 52.2442 1058.54 51.7442 1058.54 51.1742ZM1061.94 51.1442C1061.94 50.3142 1062.11 49.5792 1062.45 48.9392C1062.8 48.2992 1063.27 47.8042 1063.86 47.4542C1064.46 47.0942 1065.13 46.9142 1065.86 46.9142C1066.4 46.9142 1066.93 47.0342 1067.45 47.2742C1067.98 47.5042 1068.4 47.8142 1068.71 48.2042V44.2142H1070.43V55.3142H1068.71V54.0692C1068.43 54.4692 1068.04 54.7992 1067.54 55.0592C1067.05 55.3192 1066.48 55.4492 1065.84 55.4492C1065.12 55.4492 1064.46 55.2692 1063.86 54.9092C1063.27 54.5392 1062.8 54.0292 1062.45 53.3792C1062.11 52.7192 1061.94 51.9742 1061.94 51.1442ZM1068.71 51.1742C1068.71 50.6042 1068.59 50.1092 1068.35 49.6892C1068.12 49.2692 1067.81 48.9492 1067.43 48.7292C1067.05 48.5092 1066.64 48.3992 1066.2 48.3992C1065.76 48.3992 1065.35 48.5092 1064.97 48.7292C1064.59 48.9392 1064.28 49.2542 1064.04 49.6742C1063.81 50.0842 1063.7 50.5742 1063.7 51.1442C1063.7 51.7142 1063.81 52.2142 1064.04 52.6442C1064.28 53.0742 1064.59 53.4042 1064.97 53.6342C1065.36 53.8542 1065.77 53.9642 1066.2 53.9642C1066.64 53.9642 1067.05 53.8542 1067.43 53.6342C1067.81 53.4142 1068.12 53.0942 1068.35 52.6742C1068.59 52.2442 1068.71 51.7442 1068.71 51.1742ZM1080.26 50.9792C1080.26 51.2892 1080.24 51.5692 1080.2 51.8192H1073.88C1073.93 52.4792 1074.18 53.0092 1074.62 53.4092C1075.06 53.8092 1075.6 54.0092 1076.24 54.0092C1077.16 54.0092 1077.81 53.6242 1078.19 52.8542H1080.03C1079.78 53.6142 1079.33 54.2392 1078.67 54.7292C1078.02 55.2092 1077.21 55.4492 1076.24 55.4492C1075.45 55.4492 1074.74 55.2742 1074.11 54.9242C1073.49 54.5642 1073 54.0642 1072.64 53.4242C1072.29 52.7742 1072.11 52.0242 1072.11 51.1742C1072.11 50.3242 1072.28 49.5792 1072.62 48.9392C1072.97 48.2892 1073.46 47.7892 1074.08 47.4392C1074.71 47.0892 1075.43 46.9142 1076.24 46.9142C1077.02 46.9142 1077.71 47.0842 1078.32 47.4242C1078.93 47.7642 1079.41 48.2442 1079.75 48.8642C1080.09 49.4742 1080.26 50.1792 1080.26 50.9792ZM1078.47 50.4392C1078.46 49.8092 1078.24 49.3042 1077.8 48.9242C1077.36 48.5442 1076.81 48.3542 1076.16 48.3542C1075.57 48.3542 1075.07 48.5442 1074.65 48.9242C1074.23 49.2942 1073.98 49.7992 1073.9 50.4392H1078.47ZM1084.94 55.4492C1084.29 55.4492 1083.7 55.3342 1083.18 55.1042C1082.67 54.8642 1082.27 54.5442 1081.97 54.1442C1081.67 53.7342 1081.51 53.2792 1081.49 52.7792H1083.26C1083.29 53.1292 1083.45 53.4242 1083.75 53.6642C1084.06 53.8942 1084.45 54.0092 1084.91 54.0092C1085.39 54.0092 1085.76 53.9192 1086.02 53.7392C1086.29 53.5492 1086.42 53.3092 1086.42 53.0192C1086.42 52.7092 1086.27 52.4792 1085.97 52.3292C1085.68 52.1792 1085.22 52.0142 1084.58 51.8342C1083.96 51.6642 1083.45 51.4992 1083.06 51.3392C1082.67 51.1792 1082.33 50.9342 1082.04 50.6042C1081.76 50.2742 1081.62 49.8392 1081.62 49.2992C1081.62 48.8592 1081.75 48.4592 1082.01 48.0992C1082.27 47.7292 1082.64 47.4392 1083.12 47.2292C1083.61 47.0192 1084.17 46.9142 1084.8 46.9142C1085.74 46.9142 1086.5 47.1542 1087.07 47.6342C1087.65 48.1042 1087.96 48.7492 1088 49.5692H1086.29C1086.26 49.1992 1086.11 48.9042 1085.84 48.6842C1085.57 48.4642 1085.2 48.3542 1084.74 48.3542C1084.29 48.3542 1083.95 48.4392 1083.71 48.6092C1083.47 48.7792 1083.35 49.0042 1083.35 49.2842C1083.35 49.5042 1083.43 49.6892 1083.59 49.8392C1083.75 49.9892 1083.94 50.1092 1084.17 50.1992C1084.4 50.2792 1084.74 50.3842 1085.19 50.5142C1085.79 50.6742 1086.28 50.8392 1086.66 51.0092C1087.05 51.1692 1087.39 51.4092 1087.67 51.7292C1087.95 52.0492 1088.09 52.4742 1088.1 53.0042C1088.1 53.4742 1087.97 53.8942 1087.71 54.2642C1087.45 54.6342 1087.08 54.9242 1086.6 55.1342C1086.13 55.3442 1085.58 55.4492 1084.94 55.4492Z" fill="white"/>
<path d="M1312.61 59.5272L1308.07 55.0087C1309.54 53.1459 1310.33 50.8456 1310.33 48.4774C1310.33 46.3685 1309.7 44.3068 1308.53 42.5533C1307.36 40.7997 1305.69 39.433 1303.74 38.6259C1301.8 37.8188 1299.65 37.6077 1297.58 38.0191C1295.51 38.4305 1293.61 39.4461 1292.12 40.9374C1290.63 42.4287 1289.62 44.3287 1289.2 46.3972C1288.79 48.4656 1289 50.6096 1289.81 52.5581C1290.62 54.5065 1291.99 56.1719 1293.74 57.3436C1295.49 58.5153 1297.55 59.1407 1299.66 59.1407C1302.03 59.1436 1304.33 58.3502 1306.19 56.8881L1310.71 61.4199C1310.84 61.5449 1310.98 61.644 1311.15 61.7117C1311.31 61.7794 1311.48 61.8142 1311.66 61.8142C1311.84 61.8142 1312.01 61.7794 1312.17 61.7117C1312.33 61.644 1312.48 61.5449 1312.61 61.4199C1312.73 61.296 1312.83 61.1486 1312.9 60.9862C1312.97 60.8238 1313 60.6495 1313 60.4736C1313 60.2976 1312.97 60.1234 1312.9 59.961C1312.83 59.7985 1312.73 59.6511 1312.61 59.5272ZM1291.67 48.4774C1291.67 46.8957 1292.13 45.3495 1293.01 44.0343C1293.89 42.7191 1295.14 41.6941 1296.6 41.0888C1298.06 40.4835 1299.67 40.3251 1301.22 40.6337C1302.77 40.9423 1304.2 41.704 1305.32 42.8224C1306.44 43.9409 1307.2 45.3659 1307.51 46.9172C1307.82 48.4686 1307.66 50.0766 1307.05 51.5379C1306.45 52.9993 1305.42 54.2483 1304.11 55.1271C1302.79 56.0058 1301.24 56.4749 1299.66 56.4749C1297.54 56.4749 1295.51 55.6323 1294.01 54.1325C1292.51 52.6327 1291.67 50.5985 1291.67 48.4774Z" fill="white"/>
<defs>
<filter id="filter0_b_2_3113" x="-100" y="-100" width="1640" height="300" filterUnits="userSpaceOnUse" color-interpolation-filters="sRGB">
<feFlood flood-opacity="0" result="BackgroundImageFix"/>
<feGaussianBlur in="BackgroundImageFix" stdDeviation="50"/>
<feComposite in2="SourceAlpha" operator="in" result="effect1_backgroundBlur_2_3113"/>
<feBlend mode="normal" in="SourceGraphic" in2="effect1_backgroundBlur_2_3113" result="shape"/>
</filter>
</defs>
</svg>
